<svg xmlns="http://www.w3.org/2000/svg" xmlns:xlink="http://www.w3.org/1999/xlink" width="100" zoomAndPan="magnify" viewBox="0 0 75 74.999997" height="100" preserveAspectRatio="xMidYMid meet" version="1.0"><defs><filter x="0%" y="0%" width="100%" height="100%" id="6d2bc5e82f"><feColorMatrix values="0 0 0 0 1 0 0 0 0 1 0 0 0 0 1 0 0 0 1 0" color-interpolation-filters="sRGB"/></filter><mask id="e96275d2e5"><g filter="url(#6d2bc5e82f)"><rect x="-7.5" width="90" fill="#000000" y="-7.5" height="89.999996" fill-opacity="0.18"/></g></mask><clipPath id="4afdb431a8"><path d="M 0.878906 1.082031 L 48.199219 1.082031 L 48.199219 33.773438 L 0.878906 33.773438 Z M 0.878906 1.082031 " clip-rule="nonzero"/></clipPath><clipPath id="7e1f4f3815"><rect x="0" width="49" y="0" height="34"/></clipPath><clipPath id="e9f6516dd0"><path d="M 16.191406 16.191406 L 58.902344 16.191406 L 58.902344 58.902344 L 16.191406 58.902344 Z M 16.191406 16.191406 " clip-rule="nonzero"/></clipPath></defs><g mask="url(#e96275d2e5)"><g transform="matrix(1, 0, 0, 1, 13, 20)"><g clip-path="url(#7e1f4f3815)"><g clip-path="url(#4afdb431a8)"><path fill="#00a28e" d="M 43.992188 1.082031 L 5.003906 1.082031 C 2.742188 1.082031 0.902344 2.921875 0.902344 5.1875 L 0.902344 29.808594 C 0.902344 32.074219 2.742188 33.914062 5.003906 33.914062 L 43.992188 33.914062 C 46.253906 33.914062 48.097656 32.074219 48.097656 29.808594 L 48.097656 5.1875 C 48.097656 2.921875 46.253906 1.082031 43.992188 1.082031 Z M 7.054688 26.730469 C 7.304688 22.601562 12.621094 23.203125 13.417969 21.058594 C 13.480469 20.324219 13.417969 19.816406 13.417969 19.144531 C 13.085938 18.96875 12.15625 18.027344 12.011719 16.976562 C 12.011719 16.976562 11.261719 16.621094 11.21875 15.492188 C 11.199219 14.890625 11.617188 14.464844 11.617188 14.464844 C 10.835938 11.460938 11.175781 8.339844 15.199219 8.265625 C 16.207031 8.265625 16.964844 8.75 17.265625 9.28125 C 20.066406 9.28125 19.339844 13.191406 18.914062 14.46875 C 19.070312 14.625 19.265625 15.058594 19.265625 15.640625 C 19.265625 16.476562 18.472656 16.980469 18.472656 16.980469 C 18.320312 18.046875 17.570312 18.925781 17.109375 19.144531 C 17.109375 19.816406 17.046875 20.328125 17.109375 21.058594 C 17.910156 23.203125 23.222656 22.601562 23.472656 26.730469 Z M 40.914062 23.652344 L 28.601562 23.652344 C 28.035156 23.652344 27.578125 23.195312 27.578125 22.628906 C 27.578125 22.0625 28.035156 21.601562 28.601562 21.601562 L 40.914062 21.601562 C 41.480469 21.601562 41.941406 22.0625 41.941406 22.628906 C 41.941406 23.195312 41.480469 23.652344 40.914062 23.652344 Z M 40.914062 18.523438 L 28.601562 18.523438 C 28.035156 18.523438 27.578125 18.066406 27.578125 17.5 C 27.578125 16.933594 28.035156 16.472656 28.601562 16.472656 L 40.914062 16.472656 C 41.480469 16.472656 41.941406 16.933594 41.941406 17.5 C 41.941406 18.066406 41.480469 18.523438 40.914062 18.523438 Z M 40.914062 13.394531 L 28.601562 13.394531 C 28.035156 13.394531 27.578125 12.933594 27.578125 12.367188 C 27.578125 11.800781 28.035156 11.34375 28.601562 11.34375 L 40.914062 11.34375 C 41.480469 11.34375 41.941406 11.800781 41.941406 12.367188 C 41.941406 12.933594 41.480469 13.394531 40.914062 13.394531 Z M 40.914062 13.394531 " fill-opacity="1" fill-rule="nonzero"/></g></g></g></g><g clip-path="url(#e9f6516dd0)"><path fill="#ffbd59" d="M 16.191406 18.320312 C 16.191406 17.144531 17.144531 16.191406 18.320312 16.191406 L 27.910156 16.191406 L 27.910156 20.453125 L 20.453125 20.453125 L 20.453125 27.910156 L 16.191406 27.910156 Z M 54.542969 20.453125 L 47.085938 20.453125 L 47.085938 16.191406 L 56.671875 16.191406 C 57.847656 16.191406 58.800781 17.144531 58.800781 18.320312 L 58.800781 27.910156 L 54.542969 27.910156 Z M 20.453125 54.542969 L 20.453125 47.085938 L 16.191406 47.085938 L 16.191406 56.671875 C 16.191406 57.847656 17.144531 58.800781 18.320312 58.800781 L 27.910156 58.800781 L 27.910156 54.542969 Z M 54.542969 54.542969 L 54.542969 47.085938 L 58.800781 47.085938 L 58.800781 56.671875 C 58.800781 57.847656 57.847656 58.800781 56.671875 58.800781 L 47.085938 58.800781 L 47.085938 54.542969 Z M 54.542969 54.542969 " fill-opacity="1" fill-rule="evenodd"/></g><path fill="#ffbd59" d="M 26.84375 35.367188 L 48.148438 35.367188 L 48.148438 39.628906 L 26.84375 39.628906 Z M 26.84375 35.367188 " fill-opacity="1" fill-rule="evenodd"/></svg>