<svg width="49" height="49" viewBox="0 0 49 49" fill="none" xmlns="http://www.w3.org/2000/svg">
<path d="M48.41 24.205C48.41 10.8355 37.5745 0 24.205 0C10.8355 0 0 10.8355 0 24.205C0 36.2886 8.84994 46.3015 20.4229 48.1169V31.2018H14.2772V24.205H20.4229V18.8723C20.4229 12.8069 24.0349 9.45509 29.566 9.45509C32.2136 9.45509 34.9837 9.92784 34.9837 9.92784V15.8845H31.9297C28.923 15.8845 27.9871 17.7519 27.9871 19.6666V24.205H34.7001L33.6269 31.2018H27.9871V48.1169C39.56 46.3015 48.41 36.2886 48.41 24.205Z" fill="#1877F2"/>
<path d="M33.6268 31.2018L34.7 24.205H27.9871V19.6666C27.9871 17.7519 28.9229 15.8845 31.9296 15.8845H34.9836V9.92782C34.9836 9.92782 32.2135 9.45508 29.5659 9.45508C24.0348 9.45508 20.4228 12.8069 20.4228 18.8723V24.205H14.2771V31.2018H20.4228V48.1169C21.6568 48.3107 22.919 48.41 24.2049 48.41C25.4909 48.41 26.7531 48.3107 27.9871 48.1169V31.2018H33.6268Z" fill="white"/>
</svg>
