<svg width="50" height="50" viewBox="0 0 50 50" fill="none" xmlns="http://www.w3.org/2000/svg">
<path d="M48.8332 20.377H46.8835V20.2766H25.0994V29.9584H38.7786C36.7829 35.5944 31.4204 39.6402 25.0994 39.6402C17.0792 39.6402 10.5766 33.1377 10.5766 25.1175C10.5766 17.0973 17.0792 10.5947 25.0994 10.5947C28.8014 10.5947 32.1695 11.9913 34.734 14.2726L41.5803 7.42635C37.2573 3.3975 31.4748 0.912903 25.0994 0.912903C11.7324 0.912903 0.894775 11.7505 0.894775 25.1175C0.894775 38.4845 11.7324 49.3221 25.0994 49.3221C38.4663 49.3221 49.3039 38.4845 49.3039 25.1175C49.3039 23.4946 49.1369 21.9104 48.8332 20.377Z" fill="#FFC107"/>
<path d="M3.68555 13.8515L11.638 19.6836C13.7897 14.3561 19.001 10.5947 25.0993 10.5947C28.8014 10.5947 32.1695 11.9913 34.734 14.2726L41.5802 7.42635C37.2573 3.3975 31.4748 0.912903 25.0993 0.912903C15.8024 0.912903 7.73981 6.16167 3.68555 13.8515Z" fill="#FF3D00"/>
<path d="M25.0994 49.3221C31.3514 49.3221 37.0323 46.9294 41.3274 43.0385L33.836 36.6994C31.4059 38.5401 28.3852 39.6402 25.0994 39.6402C18.8038 39.6402 13.4582 35.6259 11.4444 30.0237L3.55127 36.1051C7.55713 43.9438 15.6923 49.3221 25.0994 49.3221Z" fill="#4CAF50"/>
<path d="M48.8332 20.377H46.8835V20.2766H25.0994V29.9584H38.7786C37.8201 32.6657 36.0786 35.0002 33.8324 36.7006C33.8336 36.6994 33.8348 36.6994 33.836 36.6982L41.3273 43.0373C40.7972 43.519 49.3039 37.2198 49.3039 25.1175C49.3039 23.4946 49.1369 21.9104 48.8332 20.377Z" fill="#1976D2"/>
</svg>
