<svg width="66" height="35" viewBox="0 0 66 35" fill="none" xmlns="http://www.w3.org/2000/svg">
<path d="M21.5113 7.99498V20.1096L8.12801 0.811064C4.14876 0.811064 0.944092 4.05056 0.944092 7.99498V34.1264C4.92334 34.1264 8.12801 30.9217 8.12801 26.9425V13.5949L21.5113 31.5203V34.1264C25.4906 34.1264 28.8713 30.8869 28.8713 26.9067V0.811064C24.892 0.811064 21.5113 4.05056 21.5113 7.99498Z" fill="#161A30"/>
<mask id="mask0_170_499" style="mask-type:luminance" maskUnits="userSpaceOnUse" x="30" y="0" width="36" height="34">
<path d="M30.613 0.437418H65.285V33.3494H30.613V0.437418Z" fill="white"/>
</mask>
<g mask="url(#mask0_170_499)">
<path d="M64.6606 11.4639C62.786 4.56234 57.1155 0.441004 49.4916 0.441004H30.6138L30.9859 1.29442C32.5855 4.962 36.2064 7.33342 40.2076 7.33434H45.3483L45.3904 7.33342C45.5857 7.31875 46.308 7.27475 47.3906 7.27475C48.4319 7.27475 49.4934 7.316 50.5412 7.39667L50.6439 7.404C54.6543 7.71934 60.1497 8.768 63.545 11.9653L63.589 12.0057C63.6064 12.0231 63.6248 12.0387 63.6413 12.0561L65.2574 13.6658L64.6606 11.4639ZM65.1776 19.4188L65.173 19.4848C64.1537 28.0849 58.0799 33.4273 49.3239 33.4273H37.2798V17.1454H37.8894C41.4149 17.1454 44.284 20.0137 44.284 23.5401V26.4221H49.6172C52.2453 26.4221 54.4572 25.5595 56.0164 23.9269C57.6023 22.2659 58.441 19.8652 58.441 16.9832V16.8851C58.441 14.6539 57.9506 12.7298 56.9826 11.166L56.0788 9.70667L57.7013 10.2695C59.7134 10.968 61.345 11.8975 62.5514 13.0342C64.315 14.6952 65.1987 16.8429 65.1776 19.4188Z" fill="#FFD700"/>
</g>
</svg>
